<?xml version="1.0" standalone="no"?>
<!DOCTYPE svg PUBLIC "-//W3C//DTD SVG 20010904//EN"
 "http://www.w3.org/TR/2001/REC-SVG-20010904/DTD/svg10.dtd">
<svg version="1.0" xmlns="http://www.w3.org/2000/svg"
 width="260.000000pt" height="260.000000pt" viewBox="0 0 260.000000 260.000000"
 preserveAspectRatio="xMidYMid meet">
<metadata>
Created by potrace 1.14, written by Peter Selinger 2001-2017
</metadata>
<g transform="translate(0.000000,260.000000) scale(0.100000,-0.100000)"
fill="#000000" stroke="none">
<path d="M370 1712 c0 -772 1 -812 20 -886 35 -140 117 -267 231 -360 93 -76
264 -146 359 -146 l30 0 0 -115 0 -115 615 0 615 0 0 35 0 35 -430 0 -430 0 0
123 0 123 59 42 c115 81 204 210 251 363 l30 96 0 807 0 806 -35 0 -35 0 0
-803 c0 -771 -1 -807 -20 -882 -11 -43 -36 -108 -57 -144 -34 -62 -161 -201
-183 -201 -7 0 -10 280 -10 830 l0 830 -185 0 -185 0 0 -885 0 -885 -22 0
c-43 0 -148 30 -198 55 l-50 25 0 1030 0 1030 -185 0 -185 0 0 -808z"/>
</g>
</svg>
